<?xml version="1.0" encoding="UTF-8"?>
<svg version="1.1" viewBox="0 0 1600 1600" xmlns="http://www.w3.org/2000/svg">
<path transform="translate(841 200)" d="m0 0c1.03-0.00406 2.06-0.00812 3.12-0.0123 3.43-0.00991 6.87 0.00146 10.3 0.0128 2.49-0.00274 4.99-0.00679 7.48-0.012 5.41-0.00837 10.8-0.00746 16.2 0.00173 8.05 0.0136 16.1 0.01 24.2 0.00304 14.4-0.0119 28.8-0.00685 43.1 0.00528 12.6 0.0105 25.2 0.0151 37.8 0.0137 0.836-8.4e-5 1.67-1.68e-4 2.53-2.55e-4 3.39-3.52e-4 6.79-7.36e-4 10.2-0.00117 31.8-0.00396 63.7 0.00875 95.5 0.0295 28.3 0.0183 56.5 0.0242 84.8 0.0187 1.81-3.46e-4 3.62-6.93e-4 5.44-0.00104 0.896-1.71e-4 1.79-3.42e-4 2.72-5.18e-4 4.51-8.54e-4 9.02-0.00168 13.5-0.00247 0.89-1.57e-4 1.78-3.14e-4 2.7-4.76e-4 23.6-4e-3 47.3 0.0015 70.9 0.00999 2.55 9.07e-4 5.09 0.00181 7.64 0.00272 1.69 6.01e-4 3.38 0.00121 5.07 0.00183 11.7 0.00421 23.5 0.0048 35.2 0.00289 15.1-0.00245 30.3 0.00169 45.4 0.0172 8 0.00801 16 0.0107 24 0.00536 5.99-0.00336 12 0.00388 18 0.015 2.41 0.0029 4.82 0.00253 7.23-0.00164 20.2-0.0317 40.5 0.348 60.2 5.27 0.656 0.163 1.31 0.327 1.99 0.495 27.8 7.09 52.4 21.7 73 41.5 0.868 0.804 1.74 1.61 2.63 2.44 11.8 11.3 20.9 24.4 28.4 38.8 0.837 1.59 1.71 3.16 2.58 4.72 7.56 14 12 30.1 14.9 45.7 0.303 1.6 0.623 3.19 0.96 4.78 1.82 9.37 1.77 18.6 1.75 28.1 3e-3 1.87 0.00687 3.74 0.0115 5.61 0.0103 5.14 0.00813 10.3 0.00394 15.4-0.00237 5.59 0.00681 11.2 0.0145 16.8 0.0118 9.79 0.0162 19.6 0.0157 29.4-5.72e-4 10.5 0.00307 21 0.012 31.5 5.6e-4 0.664 0.00112 1.33 0.0017 2.01 0.00229 2.71 0.00461 5.41 0.00696 8.12 0.0245 28.2 0.0347 56.4 0.0395 84.6 5.24e-4 3.04 0.00105 6.07 0.00158 9.11 1.94e-4 1.13 1.94e-4 1.13 3.91e-4 2.28 0.00291 16.7 0.00907 33.4 0.0157 50.1 0.00272 6.88 0.00535 13.8 0.00799 20.6 2.91e-4 0.76 5.82e-4 1.52 8.82e-4 2.3 0.0166 43.6 0.0285 87.2 0.0309 131 9.46e-5 1.63 1.9e-4 3.26 2.85e-4 4.89 4.28e-4 7.36 8.33e-4 14.7 0.00124 22.1 1.82e-4 3.28 3.66e-4 6.56 5.52e-4 9.85 9.2e-5 1.64 1.82e-4 3.29 2.71e-4 4.93 0.00281 51.9 0.0245 104 0.0614 156 0.0275 38.7 0.0534 77.5 0.0599 116 1.33e-4 0.78 2.67e-4 1.56 4.04e-4 2.36 0.00287 17.1 0.00429 34.3 0.00436 51.4 3.97e-5 6.13 1.97e-4 12.3 4.15e-4 18.4 5.36e-5 1.53 1.02e-4 3.05 1.44e-4 4.58 7.42e-4 24.3 0.0164 48.5 0.0396 72.8 0.0233 24.5 0.0305 48.9 0.0158 73.4-0.00203 3.39-0.00388 6.77-0.00563 10.2-3.5e-4 0.664-7e-4 1.33-0.00106 2.01-0.00537 11.1 0.00895 22.2 0.0286 33.3 0.0158 9.68 0.0132 19.4-0.00391 29.1-0.00924 5.51-0.0109 11 0.00997 16.5 0.198 56-11.6 104-51.6 145-17.2 17.3-39.5 31.1-63 38-0.805 0.241-1.61 0.481-2.44 0.729-2.76 0.818-5.54 1.61-8.31 2.4-0.844 0.242-1.69 0.484-2.56 0.734-15.3 4.16-30.1 5.59-45.9 5.52-1.87 0.00344-3.75 0.00819-5.62 0.0141-5.12 0.0124-10.2 0.00639-15.4-0.00283-5.58-0.00674-11.2 0.00397-16.7 0.0124-9.78 0.0124-19.6 0.0136-29.3 0.00745-10.5-0.00656-21-0.00674-31.4 0.00105-0.664 4.88e-4 -1.33 9.76e-4 -2.01 0.00148-2.7 0.00201-5.41 0.00406-8.11 0.00617-27.4 0.0214-54.8 0.0235-82.2 0.0179-3.78-7.56e-4 -7.57-0.00148-11.3-0.00218-0.751-1.39e-4 -1.5-2.78e-4 -2.28-4.21e-4 -16.7-0.00296-33.3 6.37e-5 -50 0.00432-2.28 5.82e-4 -4.57 0.00115-6.85 0.00172-6.12 0.00152-12.2 0.00304-18.4 0.00459-42.7 0.0108-85.4 0.0155-128 0.00753-0.805-1.48e-4 -1.61-2.97e-4 -2.44-4.49e-4 -8.97-0.00166-17.9-0.00341-26.9-0.00519-0.81-1.61e-4 -1.62-3.22e-4 -2.46-4.88e-4 -6.57-0.00131-6.57-0.00131-9.83-0.00196-51.8-0.0104-104-0.00263-155 0.021-13.1 0.00594-26.1 0.0118-39.2 0.0174-1.21 5.16e-4 -1.21 5.16e-4 -2.44 0.00104-24.8 0.0105-49.6 0.0161-74.4 0.0165-0.779 1.28e-5 -1.56 2.56e-5 -2.36 3.87e-5 -17.1 2.28e-4 -34.2-7.78e-4 -51.3-0.00291-6.12-7.55e-4 -12.2-0.00143-18.4-0.00208-1.52-1.63e-4 -3.04-3.3e-4 -4.57-5.03e-4 -24.2-0.00272-48.4 0.00582-72.6 0.0199-25.1 0.0144-50.2 0.0139-75.2-0.00337-2.7-0.0018-5.39-0.00354-8.09-0.00523-0.662-4.2e-4 -1.32-8.41e-4 -2.01-0.00127-11.1-0.00666-22.2 0.00242-33.2 0.0157-9.66 0.0105-19.3 0.00637-29-0.00948-5.5-0.00862-11-0.0111-16.5 0.00427-42.1 0.109-42.1 0.109-60.6-4.52-0.957-0.228-1.91-0.457-2.9-0.692-44.5-10.7-81.6-38.2-106-77.1-21.8-36-23.7-75.1-23.6-116 4.12e-4 -4.98-0.0107-9.96-0.0201-14.9-0.0165-9.72-0.0221-19.4-0.0232-29.2-9.54e-4 -7.91-0.00508-15.8-0.0114-23.7-0.0176-22.4-0.0268-44.9-0.0253-67.3 7.99e-5 -1.21 1.6e-4 -2.41 2.42e-4 -3.66 8.18e-5 -1.21 1.64e-4 -2.42 2.48e-4 -3.66 8.14e-4 -19.6-0.0184-39.2-0.0465-58.8-0.0287-20.2-0.0425-40.3-0.0408-60.5 6.63e-4 -11.3-0.0048-22.6-0.0264-33.9-0.0182-9.62-0.0226-19.2-0.00898-28.9 0.00652-4.91 0.00667-9.81-0.0107-14.7-0.0158-4.5-0.0128-8.99 0.00457-13.5 0.00306-1.62-5.31e-4 -3.24-0.0117-4.86-0.0741-11.5 0.233-24.4 8.76-33.1 7.27-7.32 14.2-11.2 24.6-11.6 8.86 0.3 16.6 3.12 23.4 9 7.2 7.79 9.95 15.6 9.96 26.1 0.00194 0.694 0.00389 1.39 0.00589 2.1 0.00532 2.33 0.00356 4.66 0.00186 6.99 0.00242 1.69 0.00528 3.37 0.00855 5.06 0.00776 4.64 0.00937 9.27 0.0101 13.9 0.00184 5 0.00945 10 0.0165 15 0.0115 8.67 0.0198 17.3 0.0261 26 0.0103 13.7 0.0309 27.4 0.0531 41.1 0.00748 4.69 0.0149 9.39 0.0223 14.1 0.00185 1.17 0.0037 2.35 0.00561 3.55 0.0209 13.4 0.0398 26.7 0.0576 40.1 0.00164 1.22 0.00328 2.44 0.00496 3.7 0.0262 19.8 0.0449 39.5 0.0616 59.3 0.0175 20.3 0.0463 40.6 0.0849 60.9 0.0233 12.5 0.0374 25 0.0393 37.5 0.00212 8.59 0.0151 17.2 0.0365 25.8 0.012 4.95 0.0192 9.89 0.0133 14.8-0.0374 36.1 1.71 67.5 26.4 96.1 2.26 2.14 4.58 4.05 7 6v2c0.572 0.266 1.14 0.531 1.73 0.805 2.37 1.25 4.37 2.71 6.52 4.32 28.9 20.4 61.9 19.3 95.8 19.3 5.49-0.00857 11 4.03e-4 16.5 0.00706 9.61 0.00926 19.2 0.00746 28.8-0.00173 13.6-0.013 27.2-0.0107 40.9-0.00402 24.7 0.0121 49.4 0.00958 74.1-0.00219 23.8-0.0113 47.6-0.0173 71.4-0.0158 1.5 8.54e-5 2.99 1.7e-4 4.49 2.55e-4 6.02 3.48e-4 12 7.33e-4 18.1 0.00117 16.8 0.00119 33.6 0.00138 50.5 7.97e-4 1.15-3.9e-5 1.15-3.9e-5 2.32-7.89e-5 24.4-8.98e-4 48.8-0.00619 73.2-0.0146 0.791-2.73e-4 1.58-5.46e-4 2.4-8.28e-4 12.8-0.00445 25.7-0.00917 38.5-0.0139 50.9-0.0187 102-0.0252 153-0.0196 3.22 3.47e-4 6.44 6.93e-4 9.66 0.00104 1.19 1.28e-4 1.19 1.28e-4 2.41 2.59e-4 8.81 9.46e-4 17.6 0.00186 26.4 0.00273 1.19 1.18e-4 1.19 1.18e-4 2.4 2.39e-4 42.7 0.00422 85.4-0.00108 128-0.00975 1.51-3.03e-4 3.01-6.06e-4 4.52-9.09e-4 0.744-1.5e-4 1.49-2.99e-4 2.25-4.53e-4 1.5-3.01e-4 3-6.02e-4 4.5-9.03e-4 3.74-7.49e-4 7.48-0.0015 11.2-0.00228 16.4-0.00335 32.8-0.00542 49.1-0.00406 0.738 6.05e-5 1.48 1.21e-4 2.24 1.83e-4 3.71 3.12e-4 7.43 6.45e-4 11.1 9.86e-4 26.9 0.00245 53.7-0.00162 80.6-0.0172 14.2-0.00805 28.4-0.0107 42.6-0.00536 9.49 0.00298 19-0.00133 28.5-0.0115 5.4-0.00562 10.8-0.00814 16.2-0.00183 4.92 0.00567 9.85 0.00204 14.8-0.0088 1.76-0.00229 3.53-0.0013 5.29 0.00352 29.3 0.074 55.2-5.3 78.2-24.3 1.11-0.878 1.11-0.878 2.23-1.77 20.2-16.7 29.8-41.9 32.4-67.3 0.704-7.9 0.673-15.8 0.65-23.7 0.00209-1.84 0.00506-3.67 0.00881-5.51 0.00774-5.01 0.00316-10-0.00356-15-0.0051-5.47 0.00146-10.9 0.00649-16.4 0.00721-9.57 0.00701-19.1 0.00191-28.7-0.00757-14.2-0.00369-28.5 0.00242-42.7 0.0101-24 0.0103-47.9 0.00485-71.9-2.48e-4 -1.09-2.48e-4 -1.09-5.02e-4 -2.21-1.66e-4 -0.73-3.32e-4 -1.46-5.03e-4 -2.21-0.00505-22.3-0.00635-44.5-0.00395-66.8 1.55e-4 -1.49 3.09e-4 -2.98 4.63e-4 -4.47 6.21e-4 -5.99 0.00126-12 0.00192-18 0.00183-16.8 0.00298-33.5 0.00357-50.3 4.09e-5 -1.14 4.09e-5 -1.14 8.27e-5 -2.31 8.18e-4 -24.3-0.00143-48.6-0.00578-72.9-1.4e-4 -0.788-2.81e-4 -1.58-4.26e-4 -2.39-0.00229-12.8-0.00473-25.6-0.00718-38.4-0.00971-50.7-0.00926-101 4.61e-4 -152 0.00244-12.8 0.00486-25.6 0.00714-38.4 1.41e-4 -0.787 2.82e-4 -1.57 4.27e-4 -2.39 0.00431-24.3 0.00614-48.5 0.00527-72.8-2.72e-5 -0.762-5.43e-5 -1.52-8.23e-5 -2.31-6.25e-4 -16.7-0.00189-33.5-0.00374-50.2-6.58e-4 -5.99-0.00128-12-0.0019-18-1.55e-4 -1.49-3.12e-4 -2.98-4.72e-4 -4.47-0.00238-22.2-3.59e-4 -44.5 0.0047-66.7 1.66e-4 -0.728 3.31e-4 -1.46 5.02e-4 -2.21 1.65e-4 -0.727 3.31e-4 -1.45 5.01e-4 -2.2 0.00552-24.6 0.00347-49.1-0.00706-73.7-0.00587-14.1-0.00626-28.3 0.00129-42.4 0.00449-9.46 0.00168-18.9-0.00701-28.4-0.00475-5.38-0.0064-10.8 8.12e-4 -16.2 0.00651-4.91 0.00364-9.82-0.00636-14.7-2e-3 -1.75-7.31e-4 -3.51 0.00441-5.26 0.0248-9.11-0.267-18.1-1.14-27.2-0.115-1.21-0.115-1.21-0.232-2.45-2.66-25.1-16-48.3-35.1-64.5-8.75-6.86-17.6-12.2-27.9-16.2-0.704-0.278-1.41-0.556-2.13-0.842-16.5-5.95-33.8-5.78-51-5.72-2.54-0.0033-5.07-0.00791-7.61-0.0137-5.49-0.00962-11-0.0101-16.5-0.00235-8.16 0.0115-16.3 0.0056-24.5-0.00383-13.7-0.0154-27.5-0.0175-41.2-0.0122-18.8 7e-3 -37.5-0.00567-56.3-0.0235-8.75-0.00829-17.5-0.0156-26.2-0.0227-0.875-7.1e-4 -1.75-0.00142-2.65-0.00215-20.8-0.0167-41.6-0.024-62.4-0.0297-0.91-2.54e-4 -1.82-5.08e-4 -2.76-7.69e-4 -14.8-0.00411-29.5-0.00765-44.3-0.0111-13.9-0.00326-27.7-0.00672-41.6-0.0106-1.37-3.75e-4 -1.37-3.75e-4 -2.76-7.58e-4 -20.8-0.00577-41.6-0.0142-62.4-0.0311-0.874-7.08e-4 -1.75-0.00142-2.65-0.00215-8.72-0.00713-17.4-0.0147-26.2-0.023-18.7-0.0177-37.5-0.0272-56.2-0.0201-13.6 0.00509-27.3-4.44e-5 -40.9-0.0159-8.11-0.00903-16.2-0.0096-24.3 0.00185-6.05 0.00764-12.1-2.8e-4 -18.2-0.0142-2.45-0.00319-4.9-0.0013-7.35 0.00617-3.33 0.00942-6.65 3.99e-4 -9.98-0.0132-0.952 0.00713-1.9 0.0143-2.88 0.0216-10.7-0.0882-19.2-2.83-26.9-10.4-5.61-6.6-8.31-13.8-9.44-22.3 1.53-12.9 6.5-20.8 16.3-29.1 7.96-3.98 16.1-5.01 24.9-4.94z" fill="#000100"/>
<path transform="translate(488,38)" d="m0 0c0.73 0.359 1.46 0.718 2.21 1.09 16.3 8.03 31.5 18.7 45.8 29.9 0.808 0.628 1.62 1.26 2.45 1.9 2.54 2 5.05 4.04 7.55 6.1 0.989 0.802 1.98 1.6 3 2.43 7.66 6.32 14.8 13.1 21.8 20.1 0.871 0.862 1.74 1.72 2.64 2.61 5.17 5.19 9.94 10.6 14.5 16.3 2.07 2.59 4.2 5.13 6.34 7.66 9.2 11.3 17.3 23.4 24.7 35.9 0.655 1.11 1.31 2.21 1.98 3.35 29.6 50.5 45.3 108 45.2 166-0.00127 0.764-0.00254 1.53-0.00385 2.31-0.113 36.1-5.47 71.2-15.2 106-0.42 1.53-0.42 1.53-0.849 3.09-8.4 30.2-20.4 59.8-34.2 87.9-0.534 1.1-1.07 2.19-1.62 3.32-6.73 13.8-13.7 27.4-21.4 40.7-0.484 0.839-0.968 1.68-1.47 2.54-26.5 45.7-57.1 88.7-90.5 129-1.17 1.43-2.34 2.86-3.5 4.29-9.59 11.7-19.3 23.3-29.5 34.5-1.8 1.99-3.56 4-5.31 6.03-3.68 4.24-7.51 8.34-11.3 12.4-2.46 2.65-4.83 5.32-7.09 8.14-0.745 0.859-1.49 1.72-2.26 2.6h-2c-0.244 0.57-0.488 1.14-0.739 1.73-1.49 2.69-3.25 4.49-5.44 6.64-0.828 0.822-1.66 1.64-2.51 2.49-0.867 0.85-1.73 1.7-2.63 2.58-0.855 0.846-1.71 1.69-2.59 2.56-1.65 1.63-3.29 3.25-4.94 4.88-2.4 2.36-4.78 4.74-7.15 7.12-5 5-5 5-7.21 7.2-2.1 2.1-4.19 4.2-6.27 6.31-1.24 1.24-2.47 2.49-3.71 3.73-0.628 0.637-1.26 1.27-1.9 1.93-0.603 0.606-1.21 1.21-1.83 1.84-0.544 0.549-1.09 1.1-1.65 1.67-1.43 1.32-1.43 1.32-3.43 2.32l-1 3c0.538 0.226 1.08 0.451 1.63 0.684 8.37 4.65 15.7 12.5 19.4 21.3 0.433 0.928 0.866 1.86 1.31 2.81 1.97 9.13 1.19 17.9-3.31 26.2-5.79 7.93-12 13.6-21.8 15.7-10.4 1.47-18.5 0.256-27-6.01-4.59-3.52-8.94-7.24-13.2-11.2-7.17-6.57-15.1-12.9-24.1-16.9-7.33-3.41-13.1-9.25-19-14.6-0.513-0.462-1.03-0.924-1.56-1.4-3.51-3.17-6.98-6.38-10.4-9.6-0.573-0.534-1.15-1.07-1.74-1.62-3.15-2.93-6.3-5.87-9.44-8.82-2.41-2.26-4.83-4.5-7.27-6.73-8.21-7.54-16.2-15.3-24.1-23.2-0.519-0.516-1.04-1.03-1.57-1.56-5.33-5.31-10.6-10.6-15.5-16.4-1.58-1.81-3.25-3.5-4.97-5.18-2.29-2.26-4.46-4.56-6.56-7-3.49-4.05-7.15-7.93-10.8-11.8-4.85-5.16-9.44-10.4-13.9-16-2.6-3.13-5.35-6.08-8.14-9.04-4.64-4.95-8.91-10.1-13-15.5-3.11-4.03-6.32-7.94-9.64-11.8-4.9-5.73-9.53-11.6-14.1-17.6-1.46-1.93-2.94-3.84-4.42-5.76-7.86-10.2-15.5-20.5-22.9-31-0.628-0.885-1.26-1.77-1.9-2.68-9.8-13.8-19.1-27.9-28.1-42.3-0.488-0.782-0.976-1.56-1.48-2.37-21.3-34.2-40.4-70.2-55.5-108-0.447-1.08-0.894-2.16-1.36-3.28-3.95-9.67-7.38-19.5-10.6-29.4-0.389-1.2-0.389-1.2-0.786-2.43-7.59-23.6-13.4-47.4-17.3-71.9-0.198-1.22-0.395-2.44-0.599-3.7-5.62-35.9-4.87-71.6 1.6-107 0.377-2.23 0.753-4.47 1.13-6.7 5.27-29.9 15.6-59.6 29.9-86.4 1.08-2.05 2.14-4.11 3.19-6.17 4.77-9.27 9.95-18.1 15.8-26.7 0.447-0.66 0.894-1.32 1.35-2 9.88-14.5 20.7-28.1 32.6-41 1.12-1.24 2.25-2.48 3.37-3.72 1.19-1.3 2.38-2.6 3.57-3.91 0.568-0.629 1.14-1.26 1.72-1.91 1.41-1.53 2.87-3 4.34-4.47h2v-2c1.26-1.3 1.26-1.3 3.12-2.88 1.11-0.938 1.11-0.938 2.24-1.89 0.87-0.736 1.74-1.47 2.64-2.23 1.48-1.31 1.48-1.31 2.98-2.64 71.6-63.2 173-93.5 373-43.4zm-221 36c-0.885 0.22-1.77 0.441-2.68 0.667-19.7 5.01-38.4 12.7-56.3 22.3-1.14 0.612-2.28 1.22-3.46 1.86-19.2 10.7-36.8 23.4-52.7 38.5-2.84 2.63-2.84 2.63-5.52 4.76-2.09 1.68-3.73 3.32-5.45 5.37-2.04 2.4-4.1 4.74-6.28 7.02-13.3 13.9-24.1 29.8-33.6 46.5-0.487 0.86-0.974 1.72-1.48 2.61-37 66.3-41.5 143-21.6 215 12.2 42.9 30 84.2 52.6 123 1.49 2.55 2.95 5.11 4.4 7.68 6.9 12.1 14.5 23.7 22.2 35.3 0.501 0.752 1 1.5 1.52 2.28 5.52 8.27 11.1 16.5 16.9 24.6 0.726 1.03 0.726 1.03 1.47 2.08 3.72 5.25 7.59 10.4 11.5 15.4 2.33 3 4.6 6.04 6.86 9.08 6.19 8.34 12.6 16.4 19.2 24.4 1.29 1.57 2.57 3.15 3.85 4.73 5.06 6.24 10.3 12.4 15.5 18.4 2.03 2.35 4.04 4.71 6.04 7.08 5.88 6.95 11.9 13.7 18.2 20.3 2.98 3.16 5.92 6.34 8.75 9.64 2.82 3.28 5.83 6.31 8.94 9.31 1.87 1.92 3.6 3.88 5.35 5.91 3.66 4.2 7.52 8.17 11.5 12.1 0.704 0.705 1.41 1.41 2.13 2.13 1.48 1.48 2.96 2.95 4.43 4.43 2.24 2.24 4.48 4.48 6.72 6.73 1.45 1.44 2.89 2.89 4.34 4.33 0.659 0.661 1.32 1.32 2 2 3.86 3.84 7.82 7.49 12 11 1.8 1.61 3.41 3.32 5.04 5.11l2.75 2.5c3.81-0.192 5.66-2.32 8.22-4.96 0.786-0.8 1.57-1.6 2.38-2.42 0.811-0.841 1.62-1.68 2.46-2.55 1.61-1.66 3.23-3.31 4.85-4.96 0.713-0.737 1.43-1.47 2.16-2.23 1.93-1.86 1.93-1.86 4.93-3.86v-2c0.812-0.325 0.812-0.325 1.64-0.656 3.18-1.81 5.57-4.26 8.11-6.84 0.507-0.499 1.01-0.998 1.54-1.51 2.84-2.52 2.84-2.52 3.71-5.99 0.99-0.33 1.98-0.66 3-1 1.41-1.39 1.41-1.39 2.81-3.19 3.52-4.17 7.31-7.98 11.2-11.8 4.34-4.29 8.55-8.62 12.5-13.3 1.59-1.83 3.27-3.52 5-5.22 3.71-3.66 7.11-7.54 10.5-11.5 0.884-1.03 1.77-2.06 2.65-3.09 1.51-1.76 3.01-3.51 4.51-5.27 3.28-3.84 6.59-7.65 9.91-11.5 4.8-5.51 9.52-11.1 14-16.8 2.05-2.59 4.15-5.14 6.26-7.69 4.48-5.47 8.81-11.1 13.1-16.7 1.74-2.27 3.48-4.54 5.23-6.8 9.12-11.8 17.9-23.9 26.3-36.2 0.694-1.02 1.39-2.04 2.1-3.09 15.6-23.1 30.5-46.5 43.5-71.2 1.35-2.55 2.71-5.08 4.08-7.61 30.3-56.1 51.6-120 51.6-184 6.75e-4 -0.812 0.00135-1.62 0.00204-2.46-0.019-14.5-0.908-28.6-3.25-42.9-0.15-0.955-0.301-1.91-0.456-2.89-7.12-43.5-26.7-87-55.3-121-1.17-1.39-2.28-2.81-3.39-4.25-10.2-13.2-22.6-25.2-35.9-35.3-1.26-0.999-2.52-2-3.78-3-22.2-17.5-46.6-31.3-73.2-41-1.14-0.415-1.14-0.415-2.3-0.839-50.1-18-104-20.1-156-7.16z" fill="#000100"/>
<path transform="translate(977 1058)" d="m0 0c7.6 4.54 14.1 11.2 17 19.6 5.43 22.2-12.4 44.2-22.8 62.5-2.1 3.69-4.2 7.39-6.28 11.1-0.677 1.2-1.36 2.4-2.04 3.59-0.956 1.68-1.9 3.36-2.84 5.04-0.546 0.964-1.09 1.93-1.65 2.92-1.45 2.7-1.45 2.7-1.17 6.57 2.05 2.3 4.25 4.33 6.54 6.38 21 19.9 34.1 51.2 35.6 79.8 0.724 39.1-8.5 73.9-36.2 103-0.804 0.846-1.61 1.69-2.44 2.56-29.1 27.7-61.7 39.2-102 38.7-32.8-0.906-62.3-16-85.8-38.2-1.03-0.951-1.03-0.951-2.08-1.92-22.3-21.3-36.2-54.1-37.2-84.7-0.333-17.5 0.867-33.7 6.75-50.2 1.21-3.49 1.84-5.64 0.538-9.12-1.27-1.53-1.27-1.53-2.92-2.85-0.607-0.517-1.21-1.03-1.84-1.57-0.656-0.544-1.31-1.09-1.99-1.65-0.675-0.571-1.35-1.14-2.04-1.73-1.39-1.18-2.79-2.35-4.18-3.52-1.85-1.55-3.69-3.11-5.52-4.67-4.91-4.19-9.86-8.33-14.9-12.4-5.12-4.17-10.1-8.49-15.1-12.8-4.53-3.94-9.13-7.77-13.8-11.6-25.7-21-25.7-21-28.8-35.2-0.846-10.3 2.51-19 9-27 5.54-6.09 12.2-9.46 20.4-10.4 19.4-0.631 31.4 12.3 45 24.3 3.84 3.36 7.79 6.58 11.8 9.79 3.31 2.72 6.56 5.51 9.81 8.31 5.01 4.31 10.1 8.54 15.2 12.7 3.8 3.12 7.55 6.3 11.3 9.49 3.12 2.66 6.29 5.26 9.5 7.8 2.67-1.28 5.11-2.68 7.55-4.36 31.1-21.1 67-28.2 104-22.1 0.746 0.144 1.49 0.289 2.26 0.438 3.92-6.43 7.72-12.9 11.5-19.4 0.45-0.774 0.901-1.55 1.36-2.34 4.62-7.98 9.01-16.1 13.3-24.2 0.536-1.01 1.07-2.01 1.62-3.05 1.09-2.05 2.17-4.1 3.25-6.16 8.78-16.4 8.78-16.4 16.5-21.2 0.703-0.452 1.41-0.905 2.13-1.37 9.46-4.88 21.5-5.08 31.1-0.512zm-158 161c-14.4 15-19.2 32.4-18.9 52.8 0.467 16 7.88 31.3 19.2 42.5 13.4 12.4 29.3 19.3 47.6 20.1 19.6-0.862 37.3-9.21 50.9-23.3 11.7-13.4 17.3-31.5 16.6-49.1-1.49-14.8-7.02-28.8-17-40-0.547-0.65-1.09-1.3-1.66-1.97-5.75-6.34-12.8-10.2-20.3-14-0.969-0.509-1.94-1.02-2.94-1.54-24.9-11.8-54-3.67-73.3 14.6z" fill="#000100"/>
<path transform="translate(1359 437)" d="m0 0c23 21.3 39 53.3 40.6 84.8 0.578 16.2 0.351 31.9-4.18 47.6-0.204 0.717-0.407 1.43-0.617 2.17-6.33 21.5-18.1 39.6-33.4 55.8-0.864 0.978-0.864 0.978-1.75 1.98-20.8 22.5-54.4 35.7-84.6 37.1-2.51 0.0599-5.01 0.079-7.52 0.0771-0.901 6.45e-4 -1.8 0.00129-2.73 0.00195-9.23-0.0708-18.3-1.02-27.5-2.19-6.89 12.1-13.7 24.3-20.5 36.5-5.26 9.49-10.6 19-15.9 28.4-2.48 4.37-4.93 8.74-7.29 13.2-6.86 12.9-13.5 23.9-28.2 28.5-8.75 1.67-17.4 0.916-25.1-3.6-7.9-5.78-13.5-12.4-16-22-1.62-13.2 3.67-22.8 9.88-34.1 0.563-1.03 1.13-2.07 1.71-3.13 4.66-8.5 9.54-16.9 14.5-25.2 4.13-7.04 8.03-14.2 11.8-21.4 2.44-4.68 4.98-9.31 7.54-13.9 0.417-0.76 0.835-1.52 1.26-2.3 1.61-2.9 3.11-5.58 5.21-8.15 1.34-1.67 1.34-1.67 1.11-3.72-1.31-2.74-3.09-4.28-5.34-6.33-16.1-15.6-27.3-36.3-33.4-57.8-0.199-0.704-0.398-1.41-0.602-2.13-2.93-10.9-4.01-21.6-3.96-32.9 0.00491-1.28 0.00983-2.55 0.0149-3.87 0.386-31.2 12-60.3 32.3-83.9 0.98-1.18 0.98-1.18 1.98-2.38 3.52-4.17 3.52-4.17 5.02-5.62h2v-2c51.4-49.6 132-45.7 184 0.688zm-137 46.3c-0.748 0.643-1.5 1.29-2.27 1.95-10.9 10-19 25.4-19.9 40.3-0.631 20.2 2.85 36.4 15.8 52.4 5.89 6.13 12 10.8 19.5 14.6 0.839 0.43 1.68 0.861 2.54 1.3 14.4 7.21 31.5 9.3 47.2 4.62 19.9-7.69 35-19.5 44-39.2 6.83-17.6 6.09-35.2-0.52-52.6-7.88-17.9-21.8-29.9-39.7-37-23-8.47-48.6-2.58-66.7 13.6z" fill="#000100"/>
<path transform="translate(331 200)" d="m0 0c34.9-0.847 68.2 12.4 93.7 36 24.3 23.2 40.4 54.8 41.9 88.7 0.381 17.1-0.649 33.1-6.11 49.5-0.206 0.629-0.412 1.26-0.625 1.91-10.6 32-34 60.1-64.3 75.3-32.5 15.8-69.6 20.1-104 8.19-33.9-12.3-62-35.6-77.9-68.4-14.9-32.7-17.6-69.8-4.98-104 13.4-34 38.5-61.5 72.1-76.4 16.2-6.84 32.9-10.1 50.5-10.9zm-49.8 90.8c-10.9 14.4-15.8 31.3-14.8 49.3 2.51 18.1 11 34.2 25 46 16.4 12 34 15.6 54 13.7 15.9-2.74 32-12.3 41.5-25.3 11.6-16.4 16.2-34.8 12.9-54.6-2.85-14.2-10.1-25.6-20.4-35.8-0.612-0.634-1.22-1.27-1.86-1.92-11.5-11.1-28.6-16.4-44.3-16.5-20.4 0.396-38.8 9.71-52.1 25.1z" fill="#000100"/>
<path transform="translate(498 924)" d="m0 0c2.59 2.04 5.07 4.17 7.54 6.34 1.02 0.862 2.04 1.72 3.06 2.58 3.33 2.79 6.63 5.61 9.94 8.42 2.21 1.88 4.42 3.75 6.62 5.62 0.542 0.459 1.08 0.919 1.64 1.39 3.36 2.84 6.75 5.64 10.2 8.42 5.42 4.41 10.7 8.96 16 13.5 7.26 6.25 14.6 12.4 22 18.5 6.1 4.97 12.1 10.1 18 15.2 1.31 1.13 2.64 2.25 3.97 3.37 8.66 7.35 15.6 14.6 17 26.4 0.343 10.2-1.57 17.5-8.07 25.4-6.12 6.42-13.4 10.4-22.3 11.2-14.5 0.334-23-6.46-33.4-15.6-2.29-2-4.65-3.9-7.01-5.81-5.42-4.41-10.7-8.96-16-13.5-4.95-4.26-9.94-8.46-14.9-12.7-1.65-1.39-3.29-2.79-4.93-4.18-5.01-4.25-10-8.48-15.1-12.6-4.8-3.91-9.52-7.92-14.2-12-2.97-2.56-5.95-5.11-8.96-7.63-0.871-0.732-0.871-0.732-1.76-1.48-1.09-0.917-2.19-1.83-3.28-2.75-9.64-8.09-16.9-16-18.6-28.8-0.449-9.28 3.36-18 9.28-24.9 11.9-11.8 29.4-13.8 43.5-4.34z" fill="#000100"/>
<path transform="translate(1109 826)" d="m0 0c8.36 5.96 12.8 12.9 15.8 22.7 1.8 11.4-3.45 21.5-8.88 31.2-0.574 1.04-1.15 2.08-1.74 3.16-1.78 3.22-3.58 6.44-5.38 9.65-0.54 0.962-1.08 1.92-1.64 2.92-2.65 4.71-5.31 9.41-7.98 14.1-3.67 6.47-7.28 13-10.9 19.5-5.2 9.37-10.4 18.7-15.7 28-2.78 4.89-5.53 9.79-8.24 14.7-0.573 1.03-1.15 2.07-1.74 3.13-1.09 1.96-2.17 3.93-3.24 5.9-4.49 8.07-9.12 15.2-17.8 19.1-1 0.473-2.01 0.946-3.04 1.43-8.59 3.5-17.5 3.07-26.1-0.422-9.26-4.95-15.3-12.4-18.3-22.4-2.58-13.1 2.89-24.6 9.41-35.6 1.16-2.01 2.33-4.02 3.49-6.04 0.605-1.04 1.21-2.09 1.83-3.16 3.19-5.54 6.27-11.1 9.36-16.7 4.63-8.35 9.29-16.7 14-25 4.46-7.87 8.88-15.8 13.3-23.7 0.969-1.74 1.94-3.49 2.91-5.23 2.68-4.82 5.36-9.64 7.95-14.5 6.29-11.7 12.8-21.4 25.6-26.3 9.3-1.86 18.7-1.36 27 3.57z" fill="#000100"/>
</svg>
